<?xml version="1.0" standalone="no"?>
<!DOCTYPE svg PUBLIC "-//W3C//DTD SVG 20010904//EN"
 "http://www.w3.org/TR/2001/REC-SVG-20010904/DTD/svg10.dtd">
<svg version="1.0" xmlns="http://www.w3.org/2000/svg"
 width="1600.000000pt" height="896.000000pt" viewBox="0 0 1600.000000 896.000000"
 preserveAspectRatio="xMidYMid meet">

<g transform="translate(0.000000,896.000000) scale(0.100000,-0.100000)"
fill="#000000" stroke="none">
<path d="M10146 6650 c-118 -19 -191 -70 -226 -158 -16 -40 -10 -118 24 -307
13 -77 28 -169 31 -205 6 -64 6 -65 -12 -42 -10 12 -67 111 -127 220 -193 348
-218 381 -324 430 -138 63 -374 30 -464 -65 -60 -63 -102 -207 -127 -433 -32
-289 -38 -1046 -11 -1283 24 -203 94 -288 265 -318 149 -26 295 0 351 63 59
65 59 61 64 355 l5 274 84 -163 c131 -255 199 -364 261 -421 95 -87 205 -124
340 -114 98 7 159 29 215 79 108 95 152 253 175 629 29 477 -17 1049 -102
1276 -27 73 -96 144 -162 166 -61 21 -183 29 -260 17z m207 -189 c51 -20 86
-141 124 -426 26 -200 26 -861 0 -1044 -21 -145 -49 -235 -85 -274 -56 -58
-178 -70 -267 -25 -88 44 -127 96 -260 353 -137 263 -255 469 -286 498 -48 45
-114 34 -144 -23 -12 -24 -15 -85 -15 -362 0 -183 -3 -364 -7 -401 -6 -63 -8
-69 -37 -84 -24 -12 -48 -14 -115 -9 -102 8 -141 27 -158 79 -21 61 -33 305
-33 649 0 467 25 796 73 936 19 57 27 68 60 85 47 24 148 33 205 18 69 -19
104 -60 198 -229 182 -328 360 -616 407 -660 42 -40 117 -30 142 18 31 59 6
440 -46 705 -25 134 -25 166 4 185 46 29 177 35 240 11z"/>
<path d="M11955 6654 c-66 -11 -133 -35 -173 -64 -62 -45 -83 -94 -93 -224 -5
-61 -13 -133 -19 -161 -19 -87 -52 -187 -60 -178 -14 14 -145 254 -208 380
-70 140 -104 183 -168 214 -59 28 -146 22 -254 -16 -202 -72 -283 -152 -284
-280 -1 -202 333 -913 528 -1122 29 -32 29 -33 10 -48 -10 -8 -44 -27 -74 -42
-48 -24 -70 -29 -180 -34 -141 -6 -183 -21 -238 -84 -57 -64 -65 -95 -59 -235
9 -214 59 -320 181 -380 340 -168 831 126 1181 705 232 385 396 905 399 1266
1 112 0 117 -29 164 -36 58 -96 98 -178 119 -61 16 -231 28 -282 20z m260
-194 c61 -23 67 -69 40 -272 -51 -367 -199 -757 -409 -1078 -128 -194 -245
-325 -391 -435 -147 -111 -265 -159 -387 -158 -100 0 -158 31 -182 95 -23 64
-38 200 -25 238 13 35 18 37 150 44 149 9 255 53 392 164 77 63 87 77 87 127
0 39 -17 59 -100 119 -55 39 -103 100 -181 231 -162 270 -350 720 -334 797 4
16 18 36 31 44 34 23 200 84 227 84 35 0 58 -31 142 -195 121 -236 254 -462
287 -490 37 -31 94 -34 131 -5 64 50 153 346 173 568 8 97 22 121 80 133 45 9
236 2 269 -11z"/>
<path d="M8281 6585 c-112 -25 -188 -97 -198 -187 -3 -24 9 -123 26 -226 17
-101 34 -216 37 -255 8 -93 26 -119 -226 326 -85 151 -158 235 -230 266 -152
66 -395 31 -482 -67 -35 -41 -73 -121 -89 -190 -31 -135 -40 -290 -46 -738
-10 -826 22 -990 212 -1076 43 -19 67 -22 170 -23 141 0 198 14 253 61 71 60
74 78 66 393 l-6 276 99 -180 c151 -274 179 -320 239 -384 101 -109 197 -147
353 -138 209 10 302 92 345 299 27 134 40 331 40 613 0 384 -25 694 -75 940
-35 170 -73 232 -173 276 -64 28 -222 35 -315 14z m239 -178 c43 -15 58 -44
82 -157 41 -195 68 -543 68 -880 0 -356 -23 -588 -66 -671 -34 -67 -188 -95
-284 -52 -90 40 -133 100 -312 433 -108 199 -237 415 -257 428 -41 27 -89 21
-123 -17 l-29 -32 1 -392 c0 -216 1 -404 0 -418 0 -37 -35 -49 -141 -49 -174
0 -187 28 -210 425 -22 373 4 1038 45 1193 30 113 90 149 230 140 125 -8 144
-28 304 -314 143 -256 313 -517 360 -554 34 -27 84 -26 119 4 26 22 28 31 31
109 5 113 -22 422 -54 607 -27 164 -25 185 24 196 15 3 32 7 37 9 25 8 143 3
175 -8z"/>
<path d="M4845 6555 c-252 -47 -657 -119 -839 -150 -138 -23 -224 -42 -254
-57 -88 -45 -152 -150 -152 -252 0 -22 7 -104 15 -181 19 -184 40 -479 65
-910 37 -629 35 -610 65 -670 30 -63 79 -105 150 -131 39 -14 80 -17 190 -17
120 1 148 4 200 23 70 27 116 71 141 136 17 45 17 57 1 268 -19 245 -21 293
-9 300 4 2 82 12 172 20 91 9 192 23 224 31 123 31 208 100 263 214 26 52 28
65 27 171 0 135 -20 200 -83 272 -93 106 -199 120 -472 64 -97 -20 -181 -36
-188 -36 -7 0 -11 21 -11 55 0 44 4 56 20 65 25 13 220 43 491 74 253 29 296
43 364 118 61 68 80 128 80 258 0 92 -3 112 -26 160 -34 74 -76 120 -141 155
-44 24 -67 29 -133 32 -44 1 -116 -4 -160 -12z m212 -178 c47 -27 66 -65 71
-147 5 -90 -13 -142 -59 -166 -16 -8 -120 -26 -231 -39 -286 -35 -506 -73
-548 -95 -51 -26 -97 -81 -111 -132 -17 -65 -7 -207 17 -249 29 -50 78 -79
133 -79 25 0 135 18 245 41 116 24 212 38 229 35 137 -27 180 -233 72 -341
-55 -56 -112 -74 -270 -85 -196 -15 -226 -19 -282 -46 -42 -20 -56 -34 -74
-71 -22 -46 -22 -48 -10 -227 26 -368 26 -359 1 -381 -19 -17 -39 -20 -144
-23 -133 -4 -173 7 -194 54 -11 22 -34 340 -67 919 -15 265 -22 347 -46 611
-21 227 -17 232 217 269 154 25 716 123 859 150 89 17 164 18 192 2z"/>
<path d="M6465 6417 c-95 -25 -130 -52 -164 -127 -24 -54 -25 -101 -5 -235 8
-55 18 -190 21 -300 9 -307 -16 -492 -83 -615 -35 -64 -70 -90 -122 -90 -50 0
-85 27 -117 89 -42 83 -56 179 -62 406 -6 235 7 369 53 530 28 99 27 140 -7
206 -44 86 -178 138 -325 126 -201 -17 -270 -94 -343 -382 -44 -175 -61 -321
-68 -575 -9 -366 24 -590 116 -775 127 -255 340 -381 675 -401 273 -17 538 66
700 217 167 156 238 338 267 684 27 317 -19 921 -81 1089 -23 60 -77 116 -135
141 -53 23 -249 30 -320 12z m254 -181 c38 -20 48 -48 70 -203 32 -222 41
-353 41 -607 0 -329 -30 -518 -108 -671 -61 -121 -222 -232 -397 -272 -111
-25 -372 -25 -465 0 -230 62 -356 212 -413 489 -70 336 -27 914 85 1159 38 83
56 94 163 94 69 0 87 -3 105 -20 25 -23 24 -38 -9 -190 -65 -294 -43 -774 45
-958 33 -72 94 -136 157 -166 40 -20 60 -22 125 -19 93 5 137 24 203 90 86 86
137 217 160 410 16 139 6 601 -15 726 -19 106 -13 126 37 141 52 15 184 13
216 -3z"/>
<path d="M8368 4260 c-192 -33 -292 -118 -291 -249 1 -49 17 -93 126 -346 219
-511 388 -873 434 -933 14 -19 49 -45 80 -59 50 -23 63 -25 176 -22 113 4 126
6 170 32 31 19 60 47 81 80 45 72 391 843 508 1131 45 111 46 144 9 218 -43
86 -156 142 -309 155 -93 7 -148 -9 -197 -61 -33 -35 -54 -78 -127 -261 -47
-121 -98 -255 -114 -298 -15 -43 -30 -74 -35 -70 -4 4 -53 122 -109 262 -55
139 -112 275 -125 301 -33 65 -82 106 -145 119 -56 12 -64 12 -132 1z m126
-192 c8 -13 26 -52 40 -88 14 -36 77 -193 140 -350 96 -238 121 -290 151 -317
40 -38 72 -41 109 -12 34 27 48 54 113 228 78 209 193 501 209 534 13 24 20
27 62 27 89 -1 188 -31 197 -60 6 -19 -99 -270 -320 -770 -145 -328 -178 -394
-207 -414 -26 -19 -177 -23 -209 -6 -23 13 -102 167 -226 445 -180 399 -303
693 -303 723 0 16 7 35 15 42 21 18 109 38 167 39 39 1 50 -3 62 -21z"/>
<path d="M10190 4235 c-163 -35 -264 -87 -371 -194 -159 -160 -228 -376 -216
-679 10 -257 84 -439 236 -580 135 -125 306 -183 540 -183 167 -1 339 34 502
101 107 44 144 74 175 137 24 49 26 61 21 131 -15 192 -82 285 -204 284 -29
-1 -102 -19 -183 -45 -203 -67 -317 -79 -390 -41 -30 15 -52 8 235 78 127 31
275 71 330 89 88 28 106 38 151 83 86 84 92 172 29 372 -64 203 -250 376 -470
438 -81 22 -299 28 -385 9z m323 -170 c194 -41 346 -191 392 -387 22 -94 20
-123 -11 -147 -41 -33 -257 -95 -624 -180 -158 -37 -195 -55 -209 -105 -38
-139 183 -292 395 -273 79 8 202 39 301 77 128 49 146 40 147 -72 1 -87 -6
-94 -150 -143 -154 -52 -257 -68 -409 -63 -217 7 -346 64 -449 200 -95 124
-131 252 -129 453 1 167 21 254 84 376 96 184 264 276 504 278 50 0 120 -6
158 -14z"/>
<path d="M10267 3899 c-103 -24 -176 -81 -221 -170 -72 -144 -37 -249 81 -249
55 0 398 57 455 76 108 35 117 157 20 257 -20 21 -50 46 -67 54 -73 39 -184
52 -268 32z m164 -171 c22 -6 39 -14 39 -18 0 -9 -244 -54 -261 -48 -18 6 39
57 76 67 43 13 102 13 146 -1z"/>
<path d="M11448 4221 c-80 -26 -127 -78 -147 -161 -12 -50 -57 -377 -126 -915
-53 -410 -54 -463 -8 -529 44 -63 105 -89 274 -115 79 -12 266 -42 414 -66
289 -47 315 -47 374 -6 17 12 42 48 59 84 39 83 102 252 102 274 0 74 -62 161
-133 187 -23 8 -143 29 -267 47 -124 17 -227 33 -229 35 -3 3 12 156 33 342
21 185 45 405 53 489 l16 152 -29 58 c-31 62 -71 96 -133 113 -51 14 -221 21
-253 11z m220 -187 c13 -9 22 -24 22 -40 0 -14 -25 -246 -55 -516 -54 -480
-55 -492 -38 -527 10 -20 31 -42 46 -49 15 -8 143 -29 283 -47 140 -18 262
-39 270 -45 8 -7 14 -20 14 -29 0 -22 -68 -182 -83 -198 -10 -10 -55 -6 -222
21 -116 18 -290 46 -389 62 -198 31 -220 40 -219 95 1 75 147 1175 164 1242 6
24 18 41 32 47 30 12 146 1 175 -16z"/>
<path d="M4840 4125 c-608 -130 -839 -184 -885 -204 -55 -24 -93 -75 -107
-142 -10 -48 -8 -66 15 -159 35 -137 70 -207 124 -244 61 -42 112 -43 273 -6
161 37 200 44 200 37 0 -3 22 -142 49 -309 27 -166 64 -395 81 -508 17 -113
40 -223 50 -245 25 -56 76 -100 139 -121 47 -15 65 -16 140 -6 139 19 189 38
243 91 34 34 50 61 62 102 16 55 16 59 -28 330 -111 675 -127 782 -118 791 4
4 73 22 153 39 162 35 183 44 227 93 16 19 33 32 36 29 3 -4 6 -88 6 -189 0
-303 37 -839 65 -931 40 -134 145 -179 354 -154 107 13 156 35 200 88 42 51
46 85 27 236 -8 72 -14 132 -12 135 9 9 103 -89 193 -200 118 -148 153 -173
242 -173 57 0 78 6 155 43 49 23 104 54 122 67 l32 25 55 -25 c73 -34 242 -52
324 -35 47 10 66 20 99 55 34 35 45 57 63 126 44 165 40 156 80 163 20 3 70 6
112 6 l76 0 38 -101 c60 -158 108 -199 232 -199 71 0 214 30 261 54 56 30 103
97 116 168 8 45 -9 99 -125 395 -113 288 -227 544 -310 698 -128 234 -161 260
-335 259 -132 0 -190 -15 -243 -60 -93 -80 -273 -517 -406 -989 -27 -93 -50
-172 -52 -174 -1 -2 -41 33 -88 79 l-84 83 43 47 c79 84 116 185 116 315 0
136 -35 238 -118 340 -61 76 -166 147 -267 181 -141 47 -417 43 -733 -12 -121
-21 -157 -44 -200 -129 l-20 -40 -7 50 c-23 181 -47 240 -113 286 -63 43 -114
37 -552 -56z m464 -107 c20 -33 41 -201 27 -226 -8 -16 -41 -27 -148 -52 -215
-49 -230 -56 -263 -120 -27 -52 -26 -70 15 -315 133 -811 137 -837 113 -868
-7 -10 -42 -23 -83 -32 -158 -33 -174 -21 -200 150 -74 497 -145 919 -162 952
-24 49 -75 83 -125 83 -21 0 -108 -16 -192 -35 -85 -19 -163 -35 -174 -35 -28
0 -58 41 -78 108 -35 120 -23 138 118 170 258 59 1090 236 1130 241 4 1 14 -9
22 -21z m2346 2 c64 -34 279 -493 466 -993 56 -151 57 -170 4 -191 -21 -8 -69
-20 -105 -26 -99 -16 -102 -13 -170 167 -17 46 -37 82 -57 98 -29 24 -33 25
-181 25 -261 -1 -263 -2 -332 -232 -14 -48 -33 -95 -41 -103 -11 -11 -36 -15
-87 -14 -96 0 -141 16 -145 50 -7 64 140 571 243 835 66 167 148 338 179 369
23 23 32 25 116 25 50 0 100 -4 110 -10z m-1298 -141 c29 -6 80 -24 113 -39
77 -34 172 -134 198 -206 55 -155 19 -276 -118 -394 -61 -53 -65 -58 -65 -95
0 -25 22 -51 136 -165 75 -74 140 -143 145 -153 19 -34 -11 -69 -91 -109 -109
-55 -115 -53 -195 45 -236 291 -412 386 -492 268 -27 -40 -29 -97 -9 -269 8
-62 12 -122 9 -132 -7 -27 -55 -40 -149 -40 -78 0 -85 2 -100 25 -41 62 -95
1053 -64 1165 5 19 20 41 32 49 65 41 526 76 650 50z"/>
<path d="M7503 3708 c-20 -23 -43 -79 -104 -255 -36 -106 -34 -152 7 -179 20
-14 44 -16 132 -12 127 6 173 22 192 67 12 30 9 43 -50 202 -41 109 -71 175
-84 185 -30 21 -70 17 -93 -8z"/>
<path d="M5993 3734 c-63 -32 -73 -64 -73 -223 0 -174 11 -226 54 -253 45 -28
102 -17 221 42 119 59 178 113 196 180 35 136 -91 253 -290 266 -59 4 -83 1
-108 -12z m199 -185 c22 -11 35 -24 33 -32 -7 -17 -124 -89 -134 -83 -5 3 -9
37 -10 76 l-1 71 37 -7 c21 -4 55 -15 75 -25z"/>
</g>
</svg>
